<svg xmlns="http://www.w3.org/2000/svg" width="569" height="396" viewBox="0 0 569 396">
  <g id="call_action" data-name="call action" transform="translate(-815 -6213)">
    <g id="Group_170594" data-name="Group 170594" transform="translate(3 5211)">
      <g id="Group_166338" data-name="Group 166338" transform="translate(0 -0.441)">
        <g id="Group_166337" data-name="Group 166337" transform="translate(811.999 1002.442)">
          <path id="Path_80166" data-name="Path 80166" d="M677.293,317.495c-4.813,39.179-32.579,32.66-36.964,78.214-1.565,16.259,10.271,26.481,16.152,40.558,6.513,15.559,4.206,29.542-4.59,40.205H169.255c-10.67-4.9-20.85-10.106-29.712-16.363-12.2-8.6-21.854-19.19-26.778-33.717-4.444-13.126-7.868-25.788,3.806-35.744,6.338-5.413,12.935-9.589,18.671-14.607a45.362,45.362,0,0,0,11.014-13.629c21.039-41.13-5.95-77.377-15.861-118.534-.956-4-1.832-8.038-2.529-12.092-1.818-10.323-2.664-20.8-1.585-31a68.307,68.307,0,0,1,8.463-27.08c7.36-12.894,26.425-31.935,46.913-28.3,15.394,2.734,25.081,17.777,38.98,23.217,17.516,6.855,36.949,1.374,50.071-8.7,25.521-19.6,41.876-56.853,85.494-53.439,14.79,1.156,24.774,13.057,37.742,18.511,17.828,7.507,35.414,7.453,52.451.149,19.593-8.405,33.037-24.019,52.276-32.955a130.183,130.183,0,0,1,20.313-7.44c15.477-4.271,32.4-5.781,48.363-2.489a94.076,94.076,0,0,1,9.633,2.489c53.364,16.743,55.875,71.582,53.364,111.6-1.152,18.334-15.553,49.952-4.914,68.9S681.948,279.609,677.293,317.495Z" transform="translate(-108.624 -80.472)" fill="rgba(252,79,25,0.99)" opacity="0.1"/>
        </g>
      </g>
    </g>
    <g id="Group_170772" data-name="Group 170772">
      <g id="Group_170771" data-name="Group 170771" transform="translate(539.488 6143.338)">
        <g id="Group_170754" data-name="Group 170754" transform="translate(383.662 287.747)">
          <path id="Path_86937" data-name="Path 86937" d="M401.347,344c2.355-5.836,8.016-7.6,10.787-12.868,4.96-9.427-3.383-11.858-4.373-18.123-1.319-8.341,4.536-7.591,7.56-12.671,3.554-5.972-2.462-13.038,1.228-18.71,9.171-14.1,24.1,1.389,33.826,4.647,5.958,2,14.874,2.835,19.563-.956,6.193-5,12.365-16.6,5.808-23.294-9.24-9.432-5.853-14.265,4.139-16.652,4.423-1.057,6.449-4.428,1.54-8.277,7.46,10.78-17.422.962-21.849,8.277-3.075,5.08.717,8.081,1.787,11.986,2.736,9.992-4.13,18.591-18.451,8.584-8.235-5.754-7.541-16-16.274-18.612-8.164-2.44-17.655,4.873-20.656,14.683-2.971,9.708-6.5,14.688-16.961,13.583-12.432-1.311-22.021,6.392-16.46,17.518,4.93,9.864,18.584,4.259,25.507,9.915,7.686,6.276,5.294,14.919-4.649,23.028-3.088,2.517-7.836,6.276-6.613,10.565.793,2.782,5.756,7.2,8.952,7.315Z" transform="translate(-370.943 -237.101)" fill="#dfdff6" opacity="0.74"/>
          <path id="Path_86938" data-name="Path 86938" d="M416.854,314.812H414.2V311.22a2.772,2.772,0,0,0-2.771-2.772H379.962a2.772,2.772,0,0,0-2.771,2.772v22a15.086,15.086,0,0,0,15.086,15.086h6.835a15.08,15.08,0,0,0,14.259-10.2h3.484a4.819,4.819,0,0,0,4.818-4.818V319.632A4.819,4.819,0,0,0,416.854,314.812Zm1.739,18.482a1.741,1.741,0,0,1-1.739,1.739h-2.775a15.38,15.38,0,0,0,.119-1.811V317.893h2.657a1.741,1.741,0,0,1,1.739,1.739Z" transform="translate(-368.047 -204.021)" fill="#f8c25a"/>
          <path id="Path_86939" data-name="Path 86939" d="M410.158,316.262a20.308,20.308,0,0,0-1.6-7.814h-28.6a2.772,2.772,0,0,0-2.771,2.772v22a15.009,15.009,0,0,0,1.909,7.336c.433.015.859.053,1.3.053C396.833,340.61,410.158,329.709,410.158,316.262Z" transform="translate(-368.047 -204.021)" fill="#f6a60d"/>
        </g>
        <g id="Group_170755" data-name="Group 170755" transform="translate(343.512 432.033)">
          <path id="Path_86940" data-name="Path 86940" d="M758.538,363.223H360.067a7.718,7.718,0,0,1-7.718-7.718h0a7.718,7.718,0,0,1,7.718-7.718H758.538a7.718,7.718,0,0,1,7.718,7.718h0A7.718,7.718,0,0,1,758.538,363.223Z" transform="translate(-339.415 -330.068)" fill="#3e6193"/>
          <path id="Path_86941" data-name="Path 86941" d="M772.4,357.459h-418a10.889,10.889,0,0,1-10.888-10.888h0a10.889,10.889,0,0,1,10.888-10.89h418a10.888,10.888,0,0,1,10.888,10.89h0A10.888,10.888,0,0,1,772.4,357.459Z" transform="translate(-343.512 -335.681)" fill="#ff9843"/>
        </g>
        <g id="Group_170760" data-name="Group 170760" transform="translate(676.485 196.466)">
          <path id="Path_86960" data-name="Path 86960" d="M28.276,0A28.276,28.276,0,1,1,0,28.276,28.276,28.276,0,0,1,28.276,0Z" fill="#184992"/>
          <circle id="Ellipse_3457" data-name="Ellipse 3457" cx="22.047" cy="22.047" r="22.047" transform="translate(6.228 6.228)" fill="#fff"/>
          <g id="Group_170756" data-name="Group 170756" transform="translate(28.276 15.019)">
            <line id="Line_406" data-name="Line 406" y1="13.257" fill="none" stroke="#4b4583" stroke-linecap="round" stroke-linejoin="round" stroke-width="0.978"/>
            <line id="Line_407" data-name="Line 407" x2="8.105" y2="8.105" transform="translate(0 13.257)" fill="none" stroke="#4b4583" stroke-linecap="round" stroke-linejoin="round" stroke-width="0.978"/>
          </g>
          <g id="Group_170759" data-name="Group 170759" transform="translate(8.724 8.716)">
            <g id="Group_170758" data-name="Group 170758">
              <g id="Group_170757" data-name="Group 170757">
                <line id="Line_408" data-name="Line 408" y1="2.617" transform="translate(19.55 36.496)" fill="none" stroke="#4b4583" stroke-linecap="round" stroke-linejoin="round" stroke-width="0.684"/>
                <line id="Line_409" data-name="Line 409" x1="1.309" y1="2.27" transform="translate(28.016 34.226)" fill="none" stroke="#4b4583" stroke-linecap="round" stroke-linejoin="round" stroke-width="0.684"/>
                <line id="Line_410" data-name="Line 410" x1="2.27" y1="1.309" transform="translate(34.213 28.03)" fill="none" stroke="#4b4583" stroke-linecap="round" stroke-linejoin="round" stroke-width="0.684"/>
                <line id="Line_411" data-name="Line 411" x1="2.631" transform="translate(36.483 19.563)" fill="none" stroke="#4b4583" stroke-linecap="round" stroke-linejoin="round" stroke-width="0.684"/>
                <line id="Line_412" data-name="Line 412" x1="2.257" y2="1.309" transform="translate(34.226 9.788)" fill="none" stroke="#4b4583" stroke-linecap="round" stroke-linejoin="round" stroke-width="0.684"/>
                <line id="Line_413" data-name="Line 413" x1="1.309" y2="2.257" transform="translate(28.016 2.631)" fill="none" stroke="#4b4583" stroke-linecap="round" stroke-linejoin="round" stroke-width="0.684"/>
                <line id="Line_414" data-name="Line 414" y1="2.631" transform="translate(19.55)" fill="none" stroke="#4b4583" stroke-linecap="round" stroke-linejoin="round" stroke-width="0.684"/>
                <line id="Line_415" data-name="Line 415" x1="1.309" y1="2.27" transform="translate(9.775 2.631)" fill="none" stroke="#4b4583" stroke-linecap="round" stroke-linejoin="round" stroke-width="0.684"/>
                <line id="Line_416" data-name="Line 416" x1="2.257" y1="1.309" transform="translate(2.617 9.788)" fill="none" stroke="#4b4583" stroke-linecap="round" stroke-linejoin="round" stroke-width="0.684"/>
                <line id="Line_417" data-name="Line 417" x1="2.617" transform="translate(0 19.563)" fill="none" stroke="#4b4583" stroke-linecap="round" stroke-linejoin="round" stroke-width="0.684"/>
                <line id="Line_418" data-name="Line 418" x1="2.27" y2="1.309" transform="translate(2.617 28.03)" fill="none" stroke="#4b4583" stroke-linecap="round" stroke-linejoin="round" stroke-width="0.684"/>
                <line id="Line_419" data-name="Line 419" x1="1.309" y2="2.27" transform="translate(9.775 34.226)" fill="none" stroke="#4b4583" stroke-linecap="round" stroke-linejoin="round" stroke-width="0.684"/>
              </g>
            </g>
          </g>
          <circle id="Ellipse_3458" data-name="Ellipse 3458" cx="1.28" cy="1.28" r="1.28" transform="translate(26.996 26.996)" fill="#4b4583"/>
        </g>
        <g id="Group_170762" data-name="Group 170762" transform="translate(447.935 185.4)">
          <path id="Path_86942" data-name="Path 86942" d="M466.817,176.1a30.467,30.467,0,1,0-5.852,47.656,4.52,4.52,0,0,1,3.615-.438l7.7,2.294a.771.771,0,0,0,.959-.959l-2.292-7.7a4.525,4.525,0,0,1,.442-3.624A30.47,30.47,0,0,0,466.817,176.1Z" transform="translate(-414.856 -167.175)" fill="#ff8526"/>
          <g id="Group_170761" data-name="Group 170761" transform="translate(13.175 17.138)">
            <line id="Line_420" data-name="Line 420" x2="34.529" fill="none" stroke="#fff" stroke-linecap="round" stroke-linejoin="round" stroke-width="1.665"/>
            <line id="Line_421" data-name="Line 421" x2="8.281" transform="translate(26.248 8.885)" fill="none" stroke="#fff" stroke-linecap="round" stroke-linejoin="round" stroke-width="1.665"/>
            <line id="Line_422" data-name="Line 422" x2="18.022" transform="translate(0 8.885)" fill="none" stroke="#fff" stroke-linecap="round" stroke-linejoin="round" stroke-width="1.665"/>
            <line id="Line_423" data-name="Line 423" x2="18.741" transform="translate(15.788 17.769)" fill="none" stroke="#fff" stroke-linecap="round" stroke-linejoin="round" stroke-width="1.665"/>
            <line id="Line_424" data-name="Line 424" x2="9.012" transform="translate(0 17.769)" fill="none" stroke="#fff" stroke-linecap="round" stroke-linejoin="round" stroke-width="1.665"/>
            <line id="Line_425" data-name="Line 425" x2="8.281" transform="translate(26.248 26.654)" fill="none" stroke="#fff" stroke-linecap="round" stroke-linejoin="round" stroke-width="1.665"/>
            <line id="Line_426" data-name="Line 426" x2="17.616" transform="translate(0 26.654)" fill="none" stroke="#fff" stroke-linecap="round" stroke-linejoin="round" stroke-width="1.665"/>
          </g>
        </g>
        <g id="Group_170768" data-name="Group 170768" transform="translate(425.961 174.503)">
          <g id="Group_170765" data-name="Group 170765" transform="translate(105.836)">
            <path id="Path_86943" data-name="Path 86943" d="M494.843,194s-3.079-13.6,10.011-25.283,33.32-10.614,44.411-4.524c14.375,7.893,28.486,28.781,15.588,58.621s46.2,17.518,26.373,57.944-54.1,12.514-66.416,29.263-54.97-27.162-18.534-57.86S497.6,221.6,494.843,194Z" transform="translate(-463.015 -159.73)" fill="#221b4c"/>
            <path id="Path_86944" data-name="Path 86944" d="M500.647,244.168c-14.956,6.374-27.338,44.274-28.494,125.129h32.231S523.966,234.228,500.647,244.168Z" transform="translate(-472.153 -120.823)" fill="#ff8526"/>
            <path id="Path_86945" data-name="Path 86945" d="M535.15,235.914c17.675-1.745,46.488,1.191,56.844,12.627,2.285,2.523,2.3,7.249,1.071,13.788-4.325,23.1-24.087,68.816-13.584,119.825H487.46s8.728-39.86,3.851-52.437c-5.577-14.38-10.4-27.376-4.912-39.387,12.5-27.35,1.306-38.673,9.227-42.626A115.029,115.029,0,0,1,535.15,235.914Z" transform="translate(-466.669 -124.623)" fill="#ff8526"/>
            <path id="Path_86946" data-name="Path 86946" d="M558.406,293.963c-3.849,22.332-29.711,25.091-42.673,20.727,0,0,18.866,11.422,32.47,5.006,0,0,3.466,10.909-1.715,45.215h16.92s0-.069-.01-.176a170.959,170.959,0,0,1,.5-50.707,71.859,71.859,0,0,1,1.808-10.442l.025-.1c2.144-10.938,4.827-20.935,7.235-29.664a97.45,97.45,0,0,0,1.421-17.6A92.073,92.073,0,0,0,558.406,293.963Z" transform="translate(-451.947 -114.987)" fill="#ff8526"/>
            <path id="Path_86947" data-name="Path 86947" d="M564.29,314.762s-16.074,19.743-23.847,14.4c-10.292-7.081-18.764-6.954-25.566-2.891a24.939,24.939,0,0,0-9.754,11.506h55.171l16.058-13.9Z" transform="translate(-456.866 -87.85)" fill="#f4ae98"/>
            <path id="Path_86948" data-name="Path 86948" d="M568.587,246.185s14.184,37.048,26.347,67.335c9.818,24.449-49.388,57.766-49.388,57.766l-9.777-13.1,34.1-37.8-20.854-43.972s-12.09-23.985,6.264-32.486C565.488,239.2,568.587,246.185,568.587,246.185Z" transform="translate(-442.658 -121.454)" fill="#ff8526"/>
            <path id="Path_86949" data-name="Path 86949" d="M537.18,211.118s-2.231,28.086,4.507,35.422c8.662,9.433-6.546,29.775-29.39,45.176,0,0-12.77-14.181-2.759-37.282s.307-36.149.307-36.149Z" transform="translate(-456.596 -135.904)" fill="#f4ae98"/>
            <path id="Path_86950" data-name="Path 86950" d="M547.034,213.87c0,19.244-13.558,34.828-25.012,34.828s-25.766-12.8-27.692-36.477c-1.559-19.181,8.776-33.2,24.4-33.2S547.034,194.626,547.034,213.87Z" transform="translate(-461.943 -150.784)" fill="#ffb99f"/>
            <path id="Path_86951" data-name="Path 86951" d="M504.178,177.316c-1.609.928-5.095,3.188-9.158,5.891-4.425,2.946-9.141,8.049-10.764,13.631-2.785,9.587,4.269,21.732,18.3,17.444s20.737-26.8,32.123-13.786c14.149,16.172,19.284,7.159,19.284,7.159s-2.838-20.134-17.176-29.2C529.1,173.6,517.526,169.615,504.178,177.316Z" transform="translate(-466.82 -153.581)" fill="#221b4c"/>
            <g id="Group_170764" data-name="Group 170764" transform="translate(28.2 17.63)">
              <path id="Path_86952" data-name="Path 86952" d="M542,201.7c0,6.278-3.71,11.367-8.289,11.367s-8.289-5.089-8.289-11.367,3.71-11.367,8.289-11.367S542,195.42,542,201.7Z" transform="translate(-475.656 -163.172)" fill="#f6a60d"/>
              <path id="Path_86953" data-name="Path 86953" d="M523.386,172.413c-12.748-2.456-25.042,2.362-31.966,11.358a37.044,37.044,0,0,1,27.906-5.515c16.934,3.261,28.929,17.015,29.327,32.287a27.238,27.238,0,0,0,.779-3.053C552.514,191.48,540.853,175.776,523.386,172.413Z" transform="translate(-491.42 -171.775)" fill="#f6a60d"/>
              <g id="Group_170763" data-name="Group 170763" transform="translate(27.501 42.236)">
                <path id="Path_86954" data-name="Path 86954" d="M536.6,200.632s2.311,25.69-21.3,28.128" transform="translate(-507.851 -200.632)" fill="none" stroke="#f6a60d" stroke-miterlimit="10" stroke-width="1.052"/>
                <path id="Path_86955" data-name="Path 86955" d="M516.112,222.987H512.39a2.182,2.182,0,0,1-2.181-2.182h0a2.182,2.182,0,0,1,2.181-2.182h3.722a2.182,2.182,0,0,1,2.182,2.182h0A2.182,2.182,0,0,1,516.112,222.987Z" transform="translate(-510.209 -192.291)" fill="#f6a60d"/>
              </g>
            </g>
          </g>
          <g id="Group_170767" data-name="Group 170767" transform="translate(0 162.228)">
            <g id="Group_170766" data-name="Group 170766" transform="translate(85.191 87.606)">
              <rect id="Rectangle_148264" data-name="Rectangle 148264" width="140.809" height="7.697" rx="2.317" fill="#39306c"/>
            </g>
            <path id="Path_86956" data-name="Path 86956" d="M560.494,365.871H436.714a8,8,0,0,1-7.519-5.265l-28.862-79.3a8,8,0,0,1,7.519-10.739H531.631a8,8,0,0,1,7.519,5.265l28.863,79.3A8,8,0,0,1,560.494,365.871Z" transform="translate(-399.843 -270.568)" fill="#47417f"/>
            <path id="Path_86957" data-name="Path 86957" d="M403.363,271.092c.465,46.869,63.236,84.777,140.608,84.777,7.586,0,15.029-.369,22.289-1.07l-28.742-78.967A8,8,0,0,0,530,270.568H406.22A7.991,7.991,0,0,0,403.363,271.092Z" transform="translate(-398.212 -270.568)" fill="#4b4583"/>
            <path id="Path_86958" data-name="Path 86958" d="M468.532,305.015a9.369,9.369,0,1,1-9.369-9.369A9.368,9.368,0,0,1,468.532,305.015Z" transform="translate(-376.684 -258.941)" fill="#5e5896"/>
          </g>
        </g>
        <g id="Group_170770" data-name="Group 170770" transform="translate(645.606 127.868)">
          <path id="Path_86959" data-name="Path 86959" d="M556.378,134.342a22.1,22.1,0,1,1,4.245,34.567,3.27,3.27,0,0,0-2.621-.316l-5.588,1.663a.558.558,0,0,1-.7-.7l1.663-5.588a3.287,3.287,0,0,0-.32-2.63A22.1,22.1,0,0,1,556.378,134.342Z" transform="translate(-549.91 -127.868)" fill="#ff8526"/>
          <g id="Group_170769" data-name="Group 170769" transform="translate(6.253 18.53)">
            <circle id="Ellipse_3459" data-name="Ellipse 3459" cx="3.568" cy="3.568" r="3.568" fill="#fff"/>
            <circle id="Ellipse_3460" data-name="Ellipse 3460" cx="3.568" cy="3.568" r="3.568" transform="translate(12.258)" fill="#fff"/>
            <circle id="Ellipse_3461" data-name="Ellipse 3461" cx="3.568" cy="3.568" r="3.568" transform="translate(24.516)" fill="#fff"/>
          </g>
        </g>
      </g>
      <g id="Group_166579" data-name="Group 166579" transform="translate(1234.919 6494.192)">
        <path id="Path_81022" data-name="Path 81022" d="M569.435,1186.691s-8.138,6.052-9.725,5.684,5.948-6.532,5.948-6.532c-2.835-1.363-11.649-.509-11.649-.509s-2.935,9.467-4.383,8.72,3.027-8.25,3.027-8.25c-3.158-.19-7.031,2.154-7.031,2.154-5.3,4.187.348,10.779.348,10.779a16.115,16.115,0,0,1-4.436,6.226,13.99,13.99,0,0,0-5.114,9.856l.868.078s1.376-5.885,3.876-8.669c.1-.1.239-.245.413-.421.407-.377.693-.661.885-.871,1.244-1.2,2.964-2.719,3.793-2.866a1.6,1.6,0,0,1-.035-.417c.011.133.023.271.035.417.284,3.332,6.748,6.241,10.724,6.84s2.747-1.036,1.377-3.46-5.706-3.508-6.7-4.624,1.056-1.119,3.452-.024,2.724,4.012,6.567,5.853,9.626-4.537,9.626-4.537c-3.063-.155-7.437-3.482-7.279-4.5s7.425,1.756,8.667,1.889,4.069-1.412,4.506-6.416S569.435,1186.691,569.435,1186.691Z" transform="translate(-493.244 -1152.824)" fill="#82b378"/>
        <g id="Group_166577" data-name="Group 166577" transform="translate(0 14.348)">
          <path id="Path_81023" data-name="Path 81023" d="M271.035,1084.667s8.989-5.034,4.794-11.865c0,0-3.356-4.195-6.951-5.274,0,0,1.917,10.187,0,10.427s-1.318-11.505-1.318-11.505-9.468-4.554-13.183-4.195c0,0,5.873,9.948,3.955,9.708s-8.509-10.307-8.509-10.307-9.708-1.8-11.266,3.955.959,8.629,2.4,8.989,10.666.24,10.427,1.438-6.472,3.116-9.947,2.038c0,0,3.835,9.468,8.869,8.989s6.592-3.6,9.708-3.835,5.393.6,3.835,1.438-6.831.275-9.348,2.415-4.554,3.458.12,4.417,13.063.36,14.741-3.236Z" transform="translate(-238.065 -1061.39)" fill="#a8d29f"/>
          <path id="Path_81024" data-name="Path 81024" d="M302.545,1128.987a19.119,19.119,0,0,1-2.4-8.749c-2.876-9.109-28.044-17.258-28.044-17.258,32,12.944,26.366,20.854,26.366,20.854.862.5,2.155,2.9,3.053,4.742.128.313.33.746.631,1.335h0c.122.266.219.484.286.636,1.648,4.122.775,11.241.775,11.241l1,.268A16.6,16.6,0,0,0,302.545,1128.987Z" transform="translate(-267.178 -1096.961)" fill="#82b378"/>
        </g>
        <g id="Group_166578" data-name="Group 166578" transform="translate(39.481)">
          <path id="Path_81025" data-name="Path 81025" d="M518.676,992.924s-11.849-6.635-6.319-15.64c0,0,4.423-5.529,9.163-6.951,0,0-2.528,13.428,0,13.744s1.738-15.166,1.738-15.166,12.481-6,17.378-5.529c0,0-7.741,13.112-5.213,12.8s11.217-13.586,11.217-13.586,12.8-2.37,14.85,5.214-1.264,11.374-3.16,11.849-14.06.316-13.744,1.9,8.531,4.107,13.112,2.686c0,0-5.055,12.481-11.69,11.849s-8.689-4.739-12.8-5.056-7.109.79-5.055,1.9,9,.362,12.322,3.183,6,4.558-.158,5.822-17.22.474-19.432-4.265Z" transform="translate(-510.887 -962.241)" fill="#a8d29f"/>
          <path id="Path_81026" data-name="Path 81026" d="M564.7,1017.064s-33.176,10.743-36.968,22.749a25.2,25.2,0,0,1-3.16,11.533,21.88,21.88,0,0,0-2.2,17.227l1.316-.354s-1.151-9.384,1.021-14.818c.089-.2.217-.487.378-.838h0c.4-.776.663-1.347.832-1.76,1.183-2.426,2.887-5.588,4.024-6.251C529.94,1044.553,522.514,1034.126,564.7,1017.064Z" transform="translate(-519.938 -1009.13)" fill="#82b378"/>
        </g>
        <path id="Path_81027" data-name="Path 81027" d="M424.782,1377.549a23.209,23.209,0,0,0,23.209-23.21H401.572A23.209,23.209,0,0,0,424.782,1377.549Z" transform="translate(-377.91 -1297.597)" fill="#f1a34f"/>
        <path id="Path_81028" data-name="Path 81028" d="M447.21,1377.37a23.225,23.225,0,0,1-26.092-23.032h5.766A23.214,23.214,0,0,0,447.21,1377.37Z" transform="translate(-394.628 -1297.596)" fill="#ffb973"/>
        <path id="Path_81029" data-name="Path 81029" d="M443.553,1503.694H402.22a2.864,2.864,0,0,0-2.864,2.863h47.06A2.863,2.863,0,0,0,443.553,1503.694Z" transform="translate(-376.015 -1425.339)" fill="#f1a34f"/>
        <path id="Path_81030" data-name="Path 81030" d="M443.652,1354.338h-47a.356.356,0,0,0,0,.712h47a.356.356,0,0,0,0-.712Z" transform="translate(-373.4 -1297.596)" fill="#d86713"/>
      </g>
    </g>
  </g>
</svg>
